/* XPM */
static char *d11da3ce86e8467ac8274e05bd8b422fK9TdxyjuF9eKaYex[] = {
/* columns rows colors chars-per-pixel */
"60 60 33 1 ",
"  c None",
". c #FFAE00",
"X c #FFB500",
"o c #FFBC00",
"O c #FFB815",
"+ c #FFBC2B",
"@ c #FFC400",
"# c #FFCA00",
"$ c #FFCF00",
"% c #FFCF0E",
"& c #FFD100",
"* c #FFD300",
"= c #FFD600",
"- c #FFD800",
"; c #FFD900",
": c #FFDB00",
"> c #FFDC00",
", c #FFDF00",
"< c #FFDA0E",
"1 c #FFDB15",
"2 c #FFE000",
"3 c #FFE100",
"4 c #FFE300",
"5 c #FFE800",
"6 c #FFE900",
"7 c #FFEC00",
"8 c #FFF000",
"9 c #FFDF2B",
"0 c #FFC74E",
"q c #FFE44E",
"w c #FFE555",
"e c #FFEC80",
"r c white",
/* pixels */
"                                                            ",
"                                                            ",
"                                                            ",
"                                                            ",
"                                                            ",
"                                                            ",
"                                                            ",
"                                                            ",
"                                                            ",
"                                                            ",
"                                                            ",
"                                                            ",
"                    8888888888888888888                     ",
"                    8888888888888888888                     ",
"                    8888888888888888888                     ",
"                 8862222222222222222222;;;                  ",
"                8886;=;;;=;=;;;=;;==;;=;;;=                 ",
"                8875;=;=;;;=;=;;=;;;;=;;=;;                 ",
"                6665;;<www%#########=;===;;                 ",
"             888,;===;9rrr+.........*=;;;;=;=;              ",
"             8882;=;;=9rrr+.........*=;;;=;;=;              ",
"             7772=;<99qrrr0++OXXXXXX=,;;;;=;=;              ",
"             ;;=;;=wrrrrrrrrre=;=;;;6882==;;;;              ",
"             =;;=;;wrrrrrrrrre=;;;=;7882;;;=;=              ",
"             ;=;=;;wrrrrrrrrre;;;;==7882;;;=;=              ",
"             =;;;;=%++0rrrq991;==;;;7882==;;;;              ",
"             ;==;=;#..+rrr9=;;;==;;;7882;;=;=;              ",
"             ;;;;;=#..+rrr9;==;;;;==7882;=;;=;              ",
"             ==;==;#..Oeee1;;;;==;;;7882;;=;;;              ",
"             ;;;;;;#..X;;=;=;=;;;;=;7882=;=;=;              ",
"             ;;=;==#..X;;=;;=;=;;=;=7882;=;;=;              ",
"             ;;=;;;#..X=;;=;;;=;;=;;788,;;;=;;              ",
"             =;;;;=#..X;==;;;=;;;;=;7882;;=;;;              ",
"             ;;==;;#..X;;;;=;=;==;=;7882;=;;=;              ",
"             ;;==;;#..X=;;;=;;=;;=;;7882;;==;=              ",
"             =;;;;=#..X;==;;=;;;;;;=7882=;;;;;              ",
"             =;;;;=#..X;;;;;=;;==;;=7882;;;===              ",
"             ;;==;;#..X=;==;=;;;=;;;7882==;=;;              ",
"             ;;==;;*##$6666666566656222;;;*ooo              ",
"             =;;;;=;=;,8788888788878,=;;;=#...              ",
"             =;;;;==;;,7888787888887,;;=;=#...              ",
"             ;;==;;;;=;6666665666666;=;$##@...              ",
"                =;;;;;==;==;;;;=;==;=;;o...                 ",
"                ;;===;;;;;;;=;;=;;;;=;;o...                 ",
"                ;=;;;=;;=;;=;=;;=;;=;;=o...                 ",
"                    ...................                     ",
"                    ...................                     ",
"                    ...................                     ",
"                                                            ",
"                                                            ",
"                                                            ",
"                                                            ",
"                                                            ",
"                                                            ",
"                                                            ",
"                                                            ",
"                                                            ",
"                                                            ",
"                                                            ",
"                                                            "
};
