/* XPM */
static char *f1d268130e434778a78b450229685d8fr3FvUZV4oVQhI1Aa[] = {
/* columns rows colors chars-per-pixel */
"60 60 83 1 ",
"  c None",
". c #3C1E23",
"X c #1C222E",
"o c #1E2430",
"O c #2A2227",
"+ c #2D2827",
"@ c #23232B",
"# c #2A2529",
"$ c #2C2929",
"% c #342325",
"& c #3D2322",
"* c #352D26",
"= c #3C2B24",
"- c #36272A",
"; c #342F2A",
": c #3C2D2A",
"> c #373027",
", c #3C3225",
"< c #32302B",
"1 c #393229",
"2 c #3F2F30",
"3 c #44261E",
"4 c #442D1F",
"5 c #4B2C1D",
"6 c #502F1A",
"7 c #45311F",
"8 c #4C331D",
"9 c #4E391E",
"0 c #563617",
"q c #5C3B16",
"w c #52331C",
"e c #58371A",
"r c #533B1C",
"t c #5B3B19",
"y c #603F16",
"u c #603F1A",
"i c #422421",
"p c #442A23",
"a c #4B2C21",
"s c #432E2A",
"d c #482D29",
"f c #453125",
"g c #4B3323",
"h c #4D3A21",
"j c #453229",
"k c #4A3329",
"l c #4C382D",
"z c #533422",
"x c #543A22",
"c c #5B3B24",
"v c #543A2A",
"b c #4C3332",
"n c #4D3C31",
"m c #5F4017",
"M c #5D401B",
"N c #644316",
"B c #694715",
"V c #6A4816",
"C c #63431B",
"Z c #69471C",
"A c #66491C",
"S c #6C4B1A",
"D c #714E1B",
"F c #74521C",
"G c #79561D",
"H c #7C591F",
"J c #564121",
"K c #5F4A25",
"L c #504128",
"P c #654421",
"I c #684720",
"U c #634B25",
"Y c #6C4C23",
"T c #704F24",
"R c #745323",
"E c #785621",
"W c #7C5A21",
"Q c #604D44",
"! c #655348",
"~ c #815E22",
"^ c #856225",
"/ c #896626",
"( c #8E6B27",
/* pixels */
"                                                            ",
"                                                            ",
"                                                            ",
"                                                            ",
"                         pp74@46                            ",
"                      33w3333%35553i5                       ",
"                    w5333i333&44353.3w                      ",
"                  w835333i&33%35i54i355v!                   ",
"                8555i5ii3ii53O4wia5i35i555i5                ",
"               f6335i53i33ie4@8wa6w3353535i5a               ",
"             l355335365aq05y4X86ieNa6ziw65i55vQ             ",
"           kw53533i63eewB06N4X90iuu60uiew5i55355            ",
"          k355.55i535NtwN08m4X9qeNNatD5tm0iwwii5b           ",
"         rw355i555qq5Cuwy38q,X9m6tNptD3NSNiqZ.p030          ",
"         0w3wwi5e30q5Cw5050q4X9qzee.IB5VGNiNS.3wir          ",
"         xw3055tD5eqaZw50S8q4X4mwtticy3(VNiVF5ta3e          ",
"        lww50a5GyeqyaSt5tTwC4X7ttCt&Pqi^StiBS5a65t          ",
"        l5wpt6gGZeqegCe3FCzt4X4wtVCiZqiRFt3NE.55BM          ",
"        j443Czphx=8%px7zEtzt*40wtVVax7&KJf%9r&54gh          ",
"        :#O&9pXoXXXoXX@jtu6tX7NwCZqp@oooXXXXXO&$XX          ",
"        -O@*xxXXXXXXXX@jwN50X7m0zNt=@XXXXXXXXsU$XX          ",
"        pw35SFwSq5ZV5tizBC50X9BNzCN5ty30qVzVqz~Z9t          ",
"        3ww5DDzDN5ZD5N5aZC50$8BqwTu6uN3eqNaVt5FZwq          ",
"        p665DuxNNwDV5Se5Dt8m97NqzYyaNu3qVNzZ5wFF8q          ",
"        pw55GZ5qNwDNzVe5FtwVp7NNaPVatu3BNuaNi5GG5q          ",
"        p5w5EF5yV6Fq6VtzSq6N44NqcZV6PN3BNNzVwaFF5M          ",
"        pwe5D~pyq5F.zZe5B8w047NeTRDaYZ5VutzND5RDwC          ",
"        pw55qEa0NwF5wBt5Siwt7,MtTDB6YDaVVepuDc/N8M          ",
"        pwwatEa0NwFqwVtaV4wq4X4rY~NaTV5yVwieDc/BrM          ",
"        gw0ztE30NwF06VtaV8mq4XfqT~N6TDaDVu3eSc/ZzC          ",
"        j8eauWzCVzFNaNt5B0Nm4X4mPZZ5YS3GVNiNSc/CtC          ",
"        dww3ZWzuVwSEwNu5CwNM4X4N5IqzyS5qDyiDCc/wwC          ",
"        lww5ZEzCV6ZE6NuzZ=tN7X4m4,tPDV3NVyiDNc/zgu          ",
"        p5w5SGaSB5S~wNtaI@4N7X4q&@5RDy3VyN3DNv^55M          ",
"        p805BR3Dy6Z~wVep>X#r9X70OX=CVN5V0ZiDev~65t          ",
"        p565qF5RV5N~6Nt&9q%r9X79&ZXrBBa0063D0zWw5t          ",
"        p555CF5FV6Zc5Ntah&=98X78#x@YFB3qS6aZyzDz5w          ",
"        p655NR5FZ6Nx5NtxAggB7X7mfggCFBaVGSiNyiae85          ",
"        5655BG5DVwy^eNucDqwB4X9qrCVwqF5.WGiBe.a6Be          ",
"        pwe7NG5CVwNT0NZcDpqB7X7qzuVw5V8.WGiSV.5zqq          ",
"        &ewwBF5NV8NcwyScSt0q#X4NwtZwtNpt~GpSV3t8N0          ",
"        3550qS5qV8ywwyTzSCwqX#7NztB6tNiVFFiBD5Zgrq          ",
"        3345MM&7rp7=48DzFCwqX70ti0Ni79&rhL&hraS<=7          ",
"        %%%**$@XXXXXXX1#Ut8qX40t&wrO@XXXXXooo+<XXX          ",
"        %+5->>XX1#>#**f3TtwtX70q.wtp=+@*>1#++jU@@#          ",
"        &&8zZB>*GwA3NAIiIi5eX7q0.eeaq5.VSS5qeaZ>=8          ",
"        pwewBNeqGwAwwBZiYi8tX7mecu6pe5.VBAiNB&3wtq          ",
"        p85gZN8SV8qqwBIittwtX7NtaewISe&VDtiBZaAwBN          ",
"        s556FS6DV5tt0FuaZt5tX#9tzatIDNaVStiBA5N8NN          ",
"        p556GDgFV5B5tWtzNwa0Xo7m6aeINZaGVNiBApB5NC          ",
"        s55wGDtBN6NzPDwzCqa0#X7M6itZZD5FBV3VNaNwMM          ",
"        sww6ZFtBewt5TSi6quaepX7maiNwIVaCVViSN5C5NN          ",
"        pww6NGwNy6N3WZi5tuze7XpN3iVaYV5tBViDNpB8AN          ",
"        =8ewNN5B0wNzwNqw0ZtB9X7V5eV6eWa.VV.HNaBa7M          ",
"        swqwqq5B05qeeVe3CY8N7X4Nity6eVa.VyiWNaN5aC          ",
"        20y6q0qBe500qy03qtw00+7q3e0yeeiiV0zDuiq3aq          ",
"                                                            ",
"                                                            ",
"                                                            ",
"                                                            "
};
