/* XPM */
static char *_c512c4281354976c1716ca461789e33F4fx3NDVSTKaUIXh[] = {
/* columns rows colors chars-per-pixel */
"60 60 187 2 ",
"   c None",
".  c #281820",
"X  c #341C22",
"o  c #3C1F24",
"O  c #372025",
"+  c #3A2227",
"@  c #3D2629",
"#  c #3D2A2E",
"$  c #3E2C31",
"%  c #432126",
"&  c #4A2326",
"*  c #4D2628",
"=  c #41292A",
"-  c #492D2D",
";  c #532729",
":  c #532E2D",
">  c #5C292A",
",  c #4E312F",
"<  c #51322F",
"1  c #482F30",
"2  c #4C3230",
"3  c #543531",
"4  c #573A35",
"5  c #593D3A",
"6  c #5C3833",
"7  c #632B2C",
"8  c #6B2E2D",
"9  c #702F2E",
"0  c #69312F",
"q  c #75312F",
"w  c #663532",
"e  c #7A3431",
"r  c #753833",
"t  c #64413A",
"y  c #744239",
"u  c #7C483D",
"i  c #363E53",
"p  c #583F43",
"a  c #364C63",
"s  c #5B4644",
"d  c #51484F",
"f  c #4D525A",
"g  c #6E4E45",
"h  c #7F4F41",
"j  c #7A5346",
"k  c #705F61",
"l  c #66676C",
"z  c #78686B",
"x  c #983C36",
"c  c #833B35",
"v  c #87463C",
"b  c #A2433A",
"n  c #A74A3E",
"m  c #944E40",
"M  c #984F41",
"N  c #815142",
"B  c #8B5444",
"V  c #8B5D4B",
"C  c #84594C",
"Z  c #945D49",
"A  c #9A5747",
"S  c #834C44",
"D  c #A64E40",
"F  c #A94D41",
"G  c #AC5243",
"H  c #A75949",
"J  c #B35B4B",
"K  c #B25946",
"L  c #AE5B54",
"P  c #B15E53",
"I  c #9A614C",
"U  c #9B6650",
"Y  c #966B5B",
"T  c #A4654E",
"R  c #AC634E",
"E  c #B5624C",
"W  c #BA644E",
"Q  c #BC684F",
"!  c #A76A52",
"~  c #AD6D52",
"^  c #B56355",
"/  c #B36951",
"(  c #BD6A52",
")  c #BC6A56",
"_  c #B47155",
"`  c #B9795B",
"'  c #A87056",
"]  c #9C6E63",
"[  c #977769",
"{  c #BA6F61",
"}  c #A77968",
"|  c #B57F66",
" . c #B67567",
".. c #C16E53",
"X. c #C57356",
"o. c #C57D5E",
"O. c #CC7C5D",
"+. c #C57C6A",
"@. c #A58271",
"#. c #CE815E",
"$. c #D0835F",
"%. c #CC8262",
"&. c #C48567",
"*. c #D28561",
"=. c #D68A64",
"-. c #D98D66",
";. c #D58E6A",
":. c #DA8F68",
">. c #D1876C",
",. c #DC926B",
"<. c #D7916F",
"1. c #C79579",
"2. c #DA9573",
"3. c #DE9A77",
"4. c #DB997B",
"5. c #D49676",
"6. c #CE8A75",
"7. c #E1976E",
"8. c #E2996F",
"9. c #E49C72",
"0. c #E29E7A",
"q. c #E9A276",
"w. c #E5A37D",
"e. c #EAA67B",
"r. c #ECA87E",
"t. c #E5A077",
"y. c #67ADBC",
"u. c #74BEC5",
"i. c #91908E",
"p. c #959597",
"a. c #AC9B8E",
"s. c #BD9782",
"d. c #D69A83",
"f. c #C79A87",
"g. c #D1AE98",
"h. c #DCA999",
"j. c #D2A78B",
"k. c #E3A481",
"l. c #EDAD85",
"z. c #E6AB8A",
"x. c #EAAB86",
"c. c #EEB28B",
"v. c #F1B48C",
"b. c #E1AB92",
"n. c #EBB393",
"m. c #EBB799",
"M. c #EEBB9B",
"N. c #F1B690",
"B. c #F2BA94",
"V. c #F2BE9C",
"C. c #D0B4A5",
"Z. c #EDBDA2",
"A. c #E7B8A2",
"S. c #F1BFA1",
"D. c #F4C19E",
"F. c #CFC0BD",
"G. c #EBC2AC",
"H. c #EFC0A4",
"J. c #F4C3A3",
"K. c #F8C7A5",
"L. c #F2C6AC",
"P. c #F5C8AC",
"I. c #F9CCAC",
"U. c #EDC8B6",
"Y. c #F4CBB3",
"T. c #F9CFB1",
"R. c #F5CFB8",
"E. c #FDD5B7",
"W. c #F5D2BD",
"Q. c #FDD6BB",
"!. c #FDD8BD",
"~. c #AFE9F4",
"^. c #F0CFC0",
"/. c #F3D3C2",
"(. c #FCDBC3",
"). c #F6DACC",
"_. c #FCDECA",
"`. c #F0D6C9",
"'. c #F8DFD2",
"]. c #FCE1CF",
"[. c #FBE2D4",
"{. c #FBE6DB",
"}. c #F7E9DD",
"|. c #FBE8DE",
" X c #F3E0D8",
".X c #FBEBE5",
"XX c #F3F6F5",
/* pixels */
"                                                                                                                        ",
"                                                                                                                        ",
"                                                                                                                        ",
"                                              . . . . . . . . . . .                                                     ",
"                                          . . q T ` 1.g.g.g.&.` m 7 . .                                                 ",
"                                        % r Z d.n.D.I.E.E.E.K.M.3._ B 8 .                                               ",
"                                      % r O.z.T.E.E.E.E.E.Q.E.E.K.x.=.E 7 O                                             ",
"                                    . w O.B.E._._._.(.E.E.E.E.E.E.K.c.9.E O                                             ",
"                                    o C B.E.E.|..X.X[.E.E.E.E.E.E.E.I.l.q.<                                             ",
"                                  . 8 +.E.E.E.}..X.X[.E.E.E.E.E.E.E.E.I.q.n &                                           ",
"                                  . N k.E.E.E.}..X.X[.E.E.E.E.E.E.E.E.I.q.$.<                                           ",
"                                  . V v.E.E.E.!.(.!.!.E.E.Q.E.E.E.E.E.I.q.q.6                                           ",
"                                  . [ P.E.E.E.E.E.E.E.E.E.Q.E.E.E.E.E.E.J.r.4                                           ",
"                                  . [ E.E.E.E.E.E.E.E.E.E.E.E.E.E.E.E.E.E.r.4                                           ",
"                                  . [ Q.E.E.E.E.Q.E.E.E.E.E.E.E.E.E.E.E.E.r.4                                           ",
"                                  . [ I.E.D.D.D.T.E.E.Q.E.E.E.E.E.E.E.E.E.v.5                                           ",
"                                  . V c.V.*.,.*.B.E.E.E.E.E.!.!.E.E.E.E.E.E.s                                           ",
"                                  . u ,.8.;.E.<.7.V.E.E.E.E..X.X].E.E.E.E.E.s                                           ",
"                                  . N ,.9.;.E.I.l.e.V.K.r.:.^ H >.D.E.E.E.l.4                                           ",
"                                    , B =.=.E.Q.I.v.N.K.k.u.y.d 3 @.E.E.T.g                                             ",
"                                      3 u W k.I.D.r.N.T.G.~.~.f i p.E.E.T.$                                             ",
"                                        + r E 6.q.e.l.J.!.}.XXl a p.E.E.T.$                                             ",
"                                          X q n =.l.c.B.E.E.}.i.l a.E.E.Z.#                                             ",
"                                          o o / ,.B.E.E.E.E.E.R.E.E.E.M.&.@                                             ",
"                                    . . & b b b X.,.N.E.E.E.E.E.E.E.B.~ .                                               ",
"                                  . 7 L ,.8.8.$.K Q 7.v.E.E.E.E.B.%.v O                                                 ",
"                                . 8  .Z.)./.e.=.O.E G J ^ ^ ^ ^ J n x q .                                               ",
"                                . ] G.|.[.S.S.G.G.d.#.O.O.O.O.O.X.Q Q R 9 X                                             ",
"                                > f.].'.P.V._..X.XZ.k.B.V.P.P.L.m.3.=.=.) @                                             ",
"                            . . A d.R.T.l.E./.R.^.m.V._.[..X.X.X[.H.0.t.m.=                                             ",
"                            . . 1.k.n.n.k.J.n.*.7.S.[..X.X.X.X.X.X].n.2.`.$                                             ",
"                            . . C..XA.*.*.2..XL *.L..X.X.X.X.X.X.XR.9.=.w.#                                             ",
"                            . . F.L.U.Y.l.E..XL *.e.B.(.(..X.X.X.X[.B.2. X$                                             ",
"                            . . C.M.L./.l.Q..XL X.8.r.N.E.!..X.X[.E.M.2.W.$                                             ",
"                            . . C.x.m.(.Y.B.(.L ..=.7.r.v.v.(.(.J.x.0.,.{ O                                             ",
"                            . . } <.n._.).e.z.F v / -.,.7.,.n.V.w.7.&.j 7 X                                             ",
"                            . . 7 R k.E.).Z.b.Q r y Z Z U k.c.t.=.-.' . .                                               ",
"                                . 8 H 1.P.).{.b...u 3 3 p j.H.z.<.O.A .                                                 ",
"                                  . . t %.e.I.{.S.x.0.:.| X &.R.b.W e .                                                 ",
"                                        6 *.e.I.[..X.X'.S.x o ! *.W e .                                                 ",
"                                          < F >.J.{.{.!.K.O.+ f.w.#.E e .                                               ",
"                                          . & 4 | H.!.E.I.8.= } 9.:.O.E q o                                             ",
"                                          X N r r @.M.T.c.( @ T ,.t.,.#.E O                                             ",
"                                        2 C b.) v v Y } I 8 > ` ,.8.9.,.#.0 +                                           ",
"                                        5 V.^.<.4.[ s + . . q O.,.,.8.q.$.b %                                           ",
"                                        k `.=.<.`.}.h.c . . . Z ,.7.,.8.$.b %                                           ",
"                                    . z ).9.*.)..X_.n.T .   . e Q 7.8.$.*.b %                                           ",
"                                  . . g l.r.P.}._.n.U @       o e ..$.$.*.b %                                           ",
"                                . w m o.9.:.3.n.&.S 2           % r G K $.O.v ; . . .                                   ",
"                            . . 7 H O.7.:.$.J N w &               & 8 n $.$...R [ } V .                                 ",
"                            . . m O.x.k.$.o.9 o .                   * n $.$.$.e.V.k.T .                                 ",
"                            . . ~ 8.V.S.3.%.;                       : J $.$.-.c.k./ 9 .                                 ",
"                            . . I ;.B.E.I.e.J 5 1 #                 6 *.=.$.,.;.R 0 .                                   ",
"                                . Z z.E.E.E.E.E.0.y .               6 #.#.#.n ; . .                                     ",
"                                  + V ,.v.E.E.c.q.C .                 + @ + O                                           ",
"                                    - 3 5 s s 4 4 2                                                                     ",
"                                    . . . . . . .                                                                       ",
"                                                                                                                        ",
"                                                                                                                        ",
"                                                                                                                        "
};
